<svg width="107" height="111" viewBox="0 0 107 111" fill="none" xmlns="http://www.w3.org/2000/svg">
<g filter="url(#filter0_d_1_173)">
<path d="M17 28.0035C17 23.2367 20.3646 19.1325 25.0388 18.1977L65.0388 10.1977C71.2268 8.96007 77 13.693 77 20.0035V47.6074C77 52.3742 73.6354 56.4783 68.9612 57.4132L28.9612 65.4132C22.7732 66.6508 17 61.9178 17 55.6074V28.0035Z" fill="url(#paint0_linear_1_173)"/>
<path d="M65.1367 10.6882C71.0152 9.51253 76.5 14.0087 76.5 20.0037V47.6072C76.5 52.1356 73.3037 56.0344 68.8633 56.9226L28.8633 64.9226C22.9848 66.0983 17.5 61.6021 17.5 55.6072V28.0037C17.5 23.4753 20.6963 19.5764 25.1367 18.6882L65.1367 10.6882Z" stroke="url(#paint1_linear_1_173)" stroke-opacity="0.6" style="mix-blend-mode:overlay"/>
</g>
<defs>
<filter id="filter0_d_1_173" x="-13" y="0" width="120" height="115.611" filterUnits="userSpaceOnUse" color-interpolation-filters="sRGB">
<feFlood flood-opacity="0" result="BackgroundImageFix"/>
<feColorMatrix in="SourceAlpha" type="matrix" values="0 0 0 0 0 0 0 0 0 0 0 0 0 0 0 0 0 0 127 0" result="hardAlpha"/>
<feOffset dy="20"/>
<feGaussianBlur stdDeviation="15"/>
<feComposite in2="hardAlpha" operator="out"/>
<feColorMatrix type="matrix" values="0 0 0 0 0.0640972 0 0 0 0 0.0794837 0 0 0 0 0.108333 0 0 0 0.6 0"/>
<feBlend mode="normal" in2="BackgroundImageFix" result="effect1_dropShadow_1_173"/>
<feBlend mode="normal" in="SourceGraphic" in2="effect1_dropShadow_1_173" result="shape"/>
</filter>
<linearGradient id="paint0_linear_1_173" x1="20" y1="7.80542" x2="61.7906" y2="88.8483" gradientUnits="userSpaceOnUse">
<stop stop-color="#34C8E8"/>
<stop offset="1" stop-color="#4E4AF2"/>
</linearGradient>
<linearGradient id="paint1_linear_1_173" x1="17" y1="7.80542" x2="51.0751" y2="80.0357" gradientUnits="userSpaceOnUse">
<stop stop-color="white"/>
<stop offset="1"/>
</linearGradient>
</defs>
</svg>
