<svg width="28" height="18" viewBox="0 0 28 18" fill="none" xmlns="http://www.w3.org/2000/svg">
<path d="M5.37465 17.8245C8.04549 17.8245 10.2712 15.7867 10.6751 13.1126H11.9858C12.2826 13.7316 12.9091 14.1616 13.6345 14.1616C14.6484 14.1616 15.4645 13.3103 15.4645 12.2613C15.4645 11.797 15.2996 11.3671 15.0276 11.0317L19.0751 6.51758L19.3883 7.35163C17.7561 8.30605 16.6515 10.1375 16.6515 12.2269C16.6515 15.3223 19.0586 17.8331 22.0344 17.8331C24.9938 17.8331 27.3926 15.3223 27.3926 12.2269C27.3926 9.1315 24.9938 6.62936 22.0344 6.62936C21.581 6.62936 21.1359 6.68955 20.7155 6.80133L18.3826 0.636281C18.2178 0.189165 17.921 0 17.4017 0H14.9287C14.5247 0 14.195 0.343936 14.195 0.765257C14.195 1.17798 14.5247 1.52192 14.9287 1.52192H17.1131C17.1873 1.52192 17.2038 1.53911 17.2286 1.5907L18.5475 5.09885L11.2192 6.18225L10.1393 4.07564H11.0461C11.45 4.07564 11.7715 3.7403 11.7715 3.31898C11.7715 2.89766 11.4417 2.55372 11.0461 2.55372H7.51791C7.12224 2.55372 6.7925 2.89766 6.7925 3.31898C6.7925 3.7403 7.11399 4.07564 7.51791 4.07564H8.56482L9.71888 6.38861L8.53184 7.69556C7.64981 7.02489 6.55345 6.62936 5.37465 6.62936C2.39881 6.62936 0 9.1315 0 12.2269C0 15.3223 2.40705 17.8245 5.37465 17.8245ZM13.6345 10.3611C13.5438 10.3611 13.4614 10.3697 13.3707 10.3783L11.8951 7.4978L17.0967 6.73254L13.7746 10.3611C13.7251 10.3611 13.6839 10.3611 13.6345 10.3611ZM10.7246 11.6938C10.6174 10.5588 10.1888 9.51842 9.53753 8.68438L10.4031 7.74715L12.1259 11.1865C12.0188 11.3413 11.9446 11.5133 11.8869 11.6938H10.7246ZM5.37465 16.294C3.2149 16.294 1.4838 14.4883 1.4838 12.2269C1.4838 9.98274 3.22314 8.16848 5.37465 8.16848C6.16601 8.16848 6.89142 8.40923 7.50143 8.82195L5.50654 11.0145C5.46533 11.0059 5.42411 11.0059 5.37465 11.0059C4.72343 11.0059 4.21234 11.5304 4.2041 12.2269C4.19585 12.9062 4.71518 13.4479 5.37465 13.4479C5.6879 13.4479 5.97641 13.3189 6.1825 13.1126H9.17482C8.79563 14.9354 7.23764 16.294 5.37465 16.294ZM22.0344 16.294C19.8747 16.294 18.1353 14.4883 18.1353 12.2269C18.1353 10.791 18.8525 9.52702 19.9324 8.80476L20.9958 11.6422C20.9133 11.8142 20.8556 12.012 20.8556 12.2269C20.8474 12.9062 21.3667 13.4479 22.0344 13.4479C22.6856 13.4479 23.1967 12.9062 23.1967 12.2269C23.1967 11.6508 22.834 11.1779 22.3229 11.0403L21.2678 8.24586C21.5151 8.19427 21.7706 8.16848 22.0344 8.16848C24.1777 8.16848 25.9253 9.99134 25.9253 12.2269C25.9253 14.4797 24.1777 16.294 22.0344 16.294ZM6.76777 11.6938L8.50711 9.81077C8.88631 10.3439 9.15009 10.9887 9.24077 11.6938H6.76777ZM13.6427 12.8718C13.3047 12.8718 13.0409 12.5967 13.0409 12.2785C13.0409 11.9346 13.313 11.6422 13.6427 11.6422C13.9724 11.6422 14.228 11.926 14.228 12.2785C14.228 12.6052 13.9724 12.8718 13.6427 12.8718Z" fill="white"/>
</svg>
