<svg width="21" height="18" viewBox="0 0 21 18" fill="none" xmlns="http://www.w3.org/2000/svg">
<path d="M0 0.834961C0 1.29199 0.386719 1.67871 0.826172 1.67871H3.57715L4.93945 10.9775C5.13281 12.3047 5.83594 13.1133 7.18066 13.1133H17.4111C17.8242 13.1133 18.2021 12.7881 18.2021 12.3223C18.2021 11.8652 17.8242 11.54 17.4111 11.54H7.38281C6.96094 11.54 6.69727 11.25 6.63574 10.8018L6.49512 9.8877H17.4814C18.8262 9.8877 19.5381 9.07031 19.7314 7.73438L20.3906 3.33105C20.4082 3.2168 20.4258 3.06738 20.4258 2.9707C20.4258 2.45215 20.0654 2.10059 19.459 2.10059H5.37891L5.23828 1.15137C5.12402 0.386719 4.81641 0 3.84082 0H0.826172C0.386719 0 0 0.386719 0 0.834961ZM6.36328 15.9873C6.36328 16.8398 7.04883 17.5254 7.90137 17.5254C8.75391 17.5254 9.43945 16.8398 9.43945 15.9873C9.43945 15.1348 8.75391 14.4492 7.90137 14.4492C7.04883 14.4492 6.36328 15.1348 6.36328 15.9873ZM14.4756 15.9873C14.4756 16.8398 15.1699 17.5254 16.0225 17.5254C16.875 17.5254 17.5518 16.8398 17.5518 15.9873C17.5518 15.1348 16.875 14.4492 16.0225 14.4492C15.1699 14.4492 14.4756 15.1348 14.4756 15.9873Z" fill="white" fill-opacity="0.6"/>
</svg>
