<svg width="19" height="18" viewBox="0 0 19 18" fill="none" xmlns="http://www.w3.org/2000/svg">
<path d="M6.79395 14.792L10.9863 17.1299C11.1973 17.2441 11.373 17.332 11.5928 17.3848V2.78613L7.51465 0.325195C7.25098 0.166992 7.00488 0.0527344 6.79395 0V14.792ZM0 15.9697C0 16.7344 0.483398 17.1562 1.18652 17.1562C1.44141 17.1562 1.70508 17.0771 2.00391 16.9189L5.50195 15.0205V0.0966797C5.30859 0.175781 5.08008 0.272461 4.84277 0.413086L0.870117 2.67188C0.272461 3.00586 0 3.48047 0 4.14844V15.9697ZM12.876 17.3408C12.9814 17.3145 13.0869 17.2705 13.1836 17.2002L17.6309 14.6865C18.2461 14.3438 18.5273 13.8779 18.5273 13.21V1.4502C18.5273 0.650391 18.0352 0.254883 17.2881 0.254883C17.0156 0.254883 16.7256 0.333984 16.418 0.500977L12.876 2.46973V17.3408Z" fill="white" fill-opacity="0.6"/>
</svg>
